<svg width="48" height="30" xmlns="http://www.w3.org/2000/svg"><g fill="none" fill-rule="evenodd"><path d="M48 28.4a1.6 1.6 0 0 1-1.6 1.6H1.6A1.6 1.6 0 0 1 0 28.4V1.6A1.6 1.6 0 0 1 1.6 0h44.8A1.6 1.6 0 0 1 48 1.6v26.8z" fill="#13457C"/><path d="M38.59 12.858c0 4.892-3.96 8.858-8.842 8.858-4.883 0-8.841-3.966-8.841-8.858S24.865 4 29.748 4c4.883 0 8.841 3.966 8.841 8.858z" fill="#F79F1A"/><path d="M27.682 12.858c0 4.892-3.958 8.858-8.841 8.858-4.883 0-8.841-3.966-8.841-8.858S13.958 4 18.841 4c4.883 0 8.841 3.966 8.841 8.858" fill="#EA001B"/><path d="M24.295 5.885a8.846 8.846 0 0 0-3.387 6.972 8.85 8.85 0 0 0 3.387 6.974 8.85 8.85 0 0 0 3.387-6.974c0-2.83-1.324-5.35-3.387-6.972" fill="#FF5F01"/><path d="M38.105 17.663v-.35h.14v-.07h-.358v.07h.14v.35h.078zm.697 0v-.421h-.11l-.127.29-.126-.29h-.11v.421h.077v-.318l.119.274h.08l.12-.274v.318h.077z" fill="#F79F1A"/><path d="M11.967 26.098h-.502v-2.341h.492v.285s.432-.349.688-.345c.5.01.797.433.797.433s.242-.433.787-.433c.807 0 .925.738.925.738v1.653h-.482v-1.456s.002-.443-.521-.443c-.542 0-.59.443-.59.443v1.456h-.502v-1.466s-.049-.462-.502-.462c-.59 0-.6.472-.6.472l.01 1.466zM27.224 23.697c-.257-.004-.689.344-.689.344v-.284h-.492v2.34h.502l-.01-1.465s.011-.471.6-.471c.11 0 .195.026.262.067v-.002l.164-.456a.904.904 0 0 0-.337-.073M34.291 23.697c-.256-.004-.688.344-.688.344v-.284h-.493v2.34h.502l-.01-1.465s.012-.471.6-.471c.11 0 .195.026.263.067v-.002l.163-.456a.904.904 0 0 0-.337-.073zM16.872 24.165c.404 0 .731.35.731.783 0 .431-.327.78-.73.78-.404 0-.73-.349-.73-.78 0-.432.326-.783.73-.783zm-.096-.477c-.75 0-1.148.675-1.15 1.238-.002.578.452 1.245 1.171 1.245.42 0 .764-.31.764-.31v.239h.493v-2.344h-.495v.295s-.324-.363-.783-.363zM31.274 24.165c.404 0 .731.35.731.783 0 .431-.327.78-.73.78-.404 0-.73-.349-.73-.78 0-.432.326-.783.73-.783zm-.096-.477c-.751 0-1.148.675-1.15 1.238-.002.578.452 1.245 1.171 1.245.42 0 .764-.31.764-.31v.239h.493v-2.344h-.496v.295s-.323-.363-.782-.363zM36.016 24.165c.403 0 .73.35.73.783 0 .431-.327.78-.73.78-.404 0-.73-.349-.73-.78 0-.432.326-.783.73-.783zm-.096-.477c-.751 0-1.149.675-1.15 1.238-.003.578.452 1.245 1.17 1.245.42 0 .765-.31.765-.31l-.001.239h.494v-3.27h-.496v1.221s-.324-.363-.782-.363zM19.561 26.177c-.511 0-.984-.315-.984-.315l.217-.335s.446.207.767.207c.208 0 .556-.067.56-.276.005-.22-.585-.285-.585-.285s-.88-.012-.88-.738c0-.456.44-.747 1.003-.747.326 0 .935.285.935.285l-.246.384s-.47-.188-.718-.197c-.21-.008-.462.093-.462.275 0 .497 1.465-.038 1.465.965 0 .657-.597.777-1.072.777zM21.448 23.078v.68h-.437v.493h.437v1.177s-.039.797.817.797c.237 0 .7-.176.7-.176l-.197-.511s-.185.157-.393.152c-.396-.01-.385-.263-.385-.263V24.25h.816v-.492h-.816v-.681h-.542zM24.347 24.176h.06c.602 0 .597.57.597.57h-1.217s-.029-.536.56-.57m.073-.46c-.805 0-1.208.664-1.204 1.239.003.592.366 1.258 1.252 1.258.379 0 .911-.333.911-.333l-.228-.398s-.364.258-.683.258c-.64 0-.681-.625-.681-.625h1.712s.127-1.399-1.08-1.399M29.511 25.476l.23.46s-.364.236-.772.236c-.845 0-1.315-.637-1.315-1.239 0-.946.747-1.224 1.252-1.224.459 0 .856.264.856.264l-.258.46s-.156-.244-.612-.244c-.455 0-.695.393-.695.765 0 .418.28.773.702.773.332 0 .612-.25.612-.25zM38.331 25.999c.017 0 .03.003.04.01.01.006.014.016.014.028a.034.034 0 0 1-.014.03.069.069 0 0 1-.04.01h-.071v-.078h.071zm.001-.055h-.135v.292h.063v-.11h.028l.089.11h.075l-.096-.11a.113.113 0 0 0 .069-.03.08.08 0 0 0 .024-.059.085.085 0 0 0-.03-.068.134.134 0 0 0-.087-.025zm-.018.392a.245.245 0 1 1 0-.49.245.245 0 0 1 .172.072.244.244 0 0 1 .07.173.241.241 0 0 1-.242.245zm0-.56a.328.328 0 0 0-.23.093.31.31 0 0 0 0 .444.326.326 0 0 0 .456 0 .31.31 0 0 0 0-.444.323.323 0 0 0-.226-.092z" fill="#FFF"/></g></svg>