<svg width="48" height="30" xmlns="http://www.w3.org/2000/svg"><g fill="none" fill-rule="evenodd"><path d="M48 28.4a1.6 1.6 0 0 1-1.6 1.6H1.6A1.6 1.6 0 0 1 0 28.4V1.6A1.6 1.6 0 0 1 1.6 0h44.8A1.6 1.6 0 0 1 48 1.6v26.8z" fill="#3957A7"/><path fill="#FFF" d="M22.207 18.983h-2.298l1.436-8.825h2.298zM17.976 10.158l-2.19 6.07-.26-1.307-.773-3.969s-.093-.794-1.09-.794h-3.621l-.042.15s1.108.23 2.403 1.008l1.996 7.667h2.394l3.657-8.825h-2.474zM33.521 15.862l1.207-3.304.68 3.304H33.52zm2.528 3.121h2.11l-1.84-8.825h-1.846c-.854 0-1.062.657-1.062.657l-3.426 8.168h2.395l.478-1.31h2.922l.27 1.31zM30.165 12.28l.327-1.895S29.48 10 28.426 10c-1.14 0-3.848.498-3.848 2.922 0 2.28 3.178 2.308 3.178 3.506 0 1.197-2.85.983-3.791.228l-.342 1.98s1.026.5 2.593.5c1.568 0 3.934-.813 3.934-3.022 0-2.295-3.207-2.509-3.207-3.506 0-.998 2.239-.87 3.221-.328"/><path d="M15.526 14.921l-.773-3.968s-.093-.795-1.09-.795h-3.621l-.042.15s1.74.36 3.41 1.711c1.595 1.292 2.116 2.902 2.116 2.902" fill="#F9A533"/></g></svg>