<svg width="48" height="30" xmlns="http://www.w3.org/2000/svg"><g fill="none" fill-rule="evenodd"><path d="M48 28.4a1.6 1.6 0 0 1-1.6 1.6H1.6A1.6 1.6 0 0 1 0 28.4V1.6A1.6 1.6 0 0 1 1.6 0h44.8A1.6 1.6 0 0 1 48 1.6v26.8z" fill="#3498D8"/><path d="M12.41 15.864h2.18l-1.09-2.728-1.09 2.728zm30.408-5.182h-5.59l-1.364 1.5-1.228-1.5H22.773l-1.091 2.454-1.091-2.454h-4.773v1.09l-.545-1.09h-4.091l-3.955 9.545H12l.545-1.5h1.364l.546 1.5h5.318v-1.09l.409 1.09h2.727L23.32 19v1.227h10.908l1.364-1.5 1.227 1.5h5.591l-3.545-4.772 3.954-4.773zm-16.5 8.182h-1.5v-5.319L22.5 18.864h-1.364l-2.318-5.319v5.319h-3.136l-.546-1.5h-3.272l-.546 1.5H9.545l2.864-6.819h2.318l2.591 6.41v-6.41h2.591l2.046 4.637 1.909-4.637h2.59v6.819h-.136zm13.5 0h-2.045L36 16.545l-2.045 2.319h-6.137v-6.819h6.273L36 14.227l2.045-2.182h1.91l-3 3.41 2.863 3.409zm-10.5-5.455v1.227h3.41V16h-3.41v1.364h3.818l1.773-2.046-1.636-1.909h-3.955z" fill="#FFF"/></g></svg>