<?xml version="1.0" encoding="UTF-8"?>
<svg width="243px" height="56px" viewBox="0 0 243 56" version="1.1" xmlns="http://www.w3.org/2000/svg" xmlns:xlink="http://www.w3.org/1999/xlink">
    <!-- Generator: Sketch 55 (78076) - https://sketchapp.com -->
    <title>logo</title>
    <desc>Created with Sketch.</desc>
    <g id="Page-1" stroke="none" stroke-width="1" fill="none" fill-rule="evenodd">
        <g id="website" transform="translate(-358.000000, -152.000000)" fill-rule="nonzero">
            <g id="register" transform="translate(320.000000, 113.000000)">
                <g id="logo" transform="translate(38.000000, 39.000000)">
                    <path d="M64,27.2231511 C64,24.7230339 62.9258246,22.4730534 61.2069941,20.9144804 C62.9258246,19.3519071 64,17.1019267 64,14.5980593 C64,11.6917981 62.6719377,8.47302217 60.3067019,7.57848024 L32.000125,0 L0.00012500586,8.57052674 L0.00012500586,8.57052674 L32.000125,17.1370533 L32.000125,17.1370533 L32.000125,17.1370533 L32.000125,17.1370533 L32.000125,17.1370533 L54.5195556,11.1407722 C54.8243199,11.0547682 55.1407097,11.0157664 55.46685,11.0157664 C57.4688189,11.0157664 59.0953951,12.6369674 59.0953951,14.6370611 C59.0953951,16.3480163 57.9102145,17.7814585 56.3121396,18.1644765 L31.99975,24.6840321 L0,16.1136303 L0,21.1918684 L32,29.7621451 L32,29.7621451 L32,29.7621451 L32,29.7621451 L32,29.7621451 L54.5194306,23.7622389 L54.5194306,23.7622389 C54.8241949,23.680235 55.1405847,23.637233 55.466725,23.637233 C57.4686938,23.637233 59.0952701,25.258309 59.0952701,27.2622779 C59.0952701,28.9732331 57.9100895,30.4028001 56.3120146,30.7858181 L31.999625,37.3096239 L0.00012500586,28.7387221 L0.00012500586,33.8169602 L32.000125,42.3833617 L32.000125,42.3833617 L32.000125,42.3833617 L32.000125,42.3833617 L32.000125,42.3833617 L54.5195556,36.48096 L54.5195556,36.4888354 C54.8243199,36.4028314 55.1407097,36.3599544 55.46685,36.3599544 C57.4688189,36.3599544 59.0953951,37.9850305 59.0953951,39.9851243 C59.0953951,41.6962045 57.9102145,43.1295217 56.3121396,43.5087895 L31.99975,50.0323453 L0.00012500586,41.4575683 L0.00012500586,46.5396815 L32.000125,55.1100833 L32.000125,55.1100833 L32.000125,55.1100833 L32.000125,55.1100833 L32.000125,55.1100833 L57.5273216,48.2701377 L57.515571,48.2271356 C61.2381205,47.3092176 63.9978749,43.9498101 63.9978749,39.9458725 C63.9978749,37.418504 62.9019485,35.1450224 61.1518665,33.5864494 C62.9024486,32.0240011 64,29.7543947 64,27.2231511 Z M32.0196259,12.1681954 L22.9923278,9.75008204 L36.1700705,6.21879151 L45.1991187,8.63690485 L32.0196259,12.1681954 Z" id="Shape" fill="#000000"></path>
                    <path d="M97.228,26.48 C98.428006,26.9000021 99.3679966,27.5549956 100.048,28.445 C100.728003,29.3350045 101.068,30.4099937 101.068,31.67 C101.068,33.5100092 100.328007,34.929995 98.848,35.93 C97.3679926,36.930005 95.228014,37.43 92.428,37.43 L81.088,37.43 L81.088,16.43 L91.828,16.43 C94.5080134,16.43 96.547993,16.9249951 97.948,17.915 C99.348007,18.905005 100.048,20.2399916 100.048,21.92 C100.048,22.920005 99.8030025,23.8149961 99.313,24.605 C98.8229976,25.395004 98.1280045,26.0199977 97.228,26.48 Z M86.968,20.72 L86.968,24.77 L91.048,24.77 C93.04801,24.77 94.048,24.0900068 94.048,22.73 C94.048,21.3899933 93.04801,20.72 91.048,20.72 L86.968,20.72 Z M91.948,33.14 C94.0280104,33.14 95.068,32.4300071 95.068,31.01 C95.068,29.5899929 94.0280104,28.88 91.948,28.88 L86.968,28.88 L86.968,33.14 L91.948,33.14 Z M112.048,37.7 C110.307991,37.7 108.738007,37.3400036 107.338,36.62 C105.937993,35.8999964 104.843004,34.9000064 104.053,33.62 C103.262996,32.3399936 102.868,30.8900081 102.868,29.27 C102.868,27.669992 103.262996,26.2300064 104.053,24.95 C104.843004,23.6699936 105.932993,22.6750036 107.323,21.965 C108.713007,21.2549965 110.287991,20.9 112.048,20.9 C113.808009,20.9 115.387993,21.2549965 116.788,21.965 C118.188007,22.6750036 119.277996,23.6649937 120.058,24.935 C120.838004,26.2050064 121.228,27.6499919 121.228,29.27 C121.228,30.8900081 120.838004,32.3399936 120.058,33.62 C119.277996,34.9000064 118.188007,35.8999964 116.788,36.62 C115.387993,37.3400036 113.808009,37.7 112.048,37.7 Z M112.048,33.17 C113.048005,33.17 113.867997,32.8250035 114.508,32.135 C115.148003,31.4449966 115.468,30.4900061 115.468,29.27 C115.468,28.069994 115.148003,27.1300034 114.508,26.45 C113.867997,25.7699966 113.048005,25.43 112.048,25.43 C111.047995,25.43 110.228003,25.7699966 109.588,26.45 C108.947997,27.1300034 108.628,28.069994 108.628,29.27 C108.628,30.4900061 108.947997,31.4449966 109.588,32.135 C110.228003,32.8250035 111.047995,33.17 112.048,33.17 Z M132.028,37.7 C130.287991,37.7 128.718007,37.3400036 127.318,36.62 C125.917993,35.8999964 124.823004,34.9000064 124.033,33.62 C123.242996,32.3399936 122.848,30.8900081 122.848,29.27 C122.848,27.669992 123.242996,26.2300064 124.033,24.95 C124.823004,23.6699936 125.912993,22.6750036 127.303,21.965 C128.693007,21.2549965 130.267991,20.9 132.028,20.9 C133.788009,20.9 135.367993,21.2549965 136.768,21.965 C138.168007,22.6750036 139.257996,23.6649937 140.038,24.935 C140.818004,26.2050064 141.208,27.6499919 141.208,29.27 C141.208,30.8900081 140.818004,32.3399936 140.038,33.62 C139.257996,34.9000064 138.168007,35.8999964 136.768,36.62 C135.367993,37.3400036 133.788009,37.7 132.028,37.7 Z M132.028,33.17 C133.028005,33.17 133.847997,32.8250035 134.488,32.135 C135.128003,31.4449966 135.448,30.4900061 135.448,29.27 C135.448,28.069994 135.128003,27.1300034 134.488,26.45 C133.847997,25.7699966 133.028005,25.43 132.028,25.43 C131.027995,25.43 130.208003,25.7699966 129.568,26.45 C128.927997,27.1300034 128.608,28.069994 128.608,29.27 C128.608,30.4900061 128.927997,31.4449966 129.568,32.135 C130.208003,32.8250035 131.027995,33.17 132.028,33.17 Z M151.228,31.73 L149.548,33.44 L149.548,37.43 L143.848,37.43 L143.848,15.17 L149.548,15.17 L149.548,26.84 L155.368,21.17 L162.118,21.17 L155.368,28.13 L162.688,37.43 L155.788,37.43 L151.228,31.73 Z M171.928,37.73 C170.307992,37.73 168.743008,37.5000023 167.233,37.04 C165.722992,36.5799977 164.528004,35.9700038 163.648,35.21 L164.998,32.18 C165.858004,32.8600034 166.912994,33.4149979 168.163,33.845 C169.413006,34.2750022 170.667994,34.49 171.928,34.49 C173.488008,34.49 174.652996,34.2400025 175.423,33.74 C176.193004,33.2399975 176.578,32.5800041 176.578,31.76 C176.578,31.159997 176.363002,30.665002 175.933,30.275 C175.502998,29.8849981 174.958003,29.5800011 174.298,29.36 C173.637997,29.1399989 172.738006,28.8900014 171.598,28.61 C169.997992,28.2299981 168.703005,27.8500019 167.713,27.47 C166.722995,27.0899981 165.873004,26.4950041 165.163,25.685 C164.452996,24.874996 164.098,23.7800069 164.098,22.4 C164.098,21.2399942 164.412997,20.1850048 165.043,19.235 C165.673003,18.2849953 166.622994,17.5300028 167.893,16.97 C169.163006,16.4099972 170.717991,16.13 172.558,16.13 C173.838006,16.13 175.097994,16.2899984 176.338,16.61 C177.578006,16.9300016 178.647995,17.389997 179.548,17.99 L178.318,21.02 C177.397995,20.4799973 176.438005,20.0700014 175.438,19.79 C174.437995,19.5099986 173.468005,19.37 172.528,19.37 C170.987992,19.37 169.843004,19.6299974 169.093,20.15 C168.342996,20.6700026 167.968,21.3599957 167.968,22.22 C167.968,22.820003 168.182998,23.3099981 168.613,23.69 C169.043002,24.0700019 169.587997,24.3699989 170.248,24.59 C170.908003,24.8100011 171.807994,25.0599986 172.948,25.34 C174.508008,25.7000018 175.787995,26.0749981 176.788,26.465 C177.788005,26.855002 178.642996,27.449996 179.353,28.25 C180.063004,29.050004 180.418,30.1299932 180.418,31.49 C180.418,32.6500058 180.103003,33.6999953 179.473,34.64 C178.842997,35.5800047 177.888006,36.3299972 176.608,36.89 C175.327994,37.4500028 173.768009,37.73 171.928,37.73 Z M193.558,36.56 C193.117998,36.9200018 192.583003,37.1899991 191.953,37.37 C191.322997,37.5500009 190.658004,37.64 189.958,37.64 C188.197991,37.64 186.838005,37.1800046 185.878,36.26 C184.917995,35.3399954 184.438,34.0000088 184.438,32.24 L184.438,24.53 L181.798,24.53 L181.798,21.53 L184.438,21.53 L184.438,17.87 L188.188,17.87 L188.188,21.53 L192.478,21.53 L192.478,24.53 L188.188,24.53 L188.188,32.15 C188.188,32.9300039 188.377998,33.524998 188.758,33.935 C189.138002,34.3450021 189.687996,34.55 190.408,34.55 C191.248004,34.55 191.947997,34.3300022 192.508,33.89 L193.558,36.56 Z M203.308,37.64 C201.687992,37.64 200.228006,37.2900035 198.928,36.59 C197.627994,35.8899965 196.613004,34.9150063 195.883,33.665 C195.152996,32.4149938 194.788,31.0000079 194.788,29.42 C194.788,27.8399921 195.152996,26.4300062 195.883,25.19 C196.613004,23.9499938 197.627994,22.9800035 198.928,22.28 C200.228006,21.5799965 201.687992,21.23 203.308,21.23 C204.948008,21.23 206.417994,21.5799965 207.718,22.28 C209.018007,22.9800035 210.032996,23.9499938 210.763,25.19 C211.493004,26.4300062 211.858,27.8399921 211.858,29.42 C211.858,31.0000079 211.493004,32.4149938 210.763,33.665 C210.032996,34.9150063 209.018007,35.8899965 207.718,36.59 C206.417994,37.2900035 204.948008,37.64 203.308,37.64 Z M203.308,34.43 C204.688007,34.43 205.827995,33.9700046 206.728,33.05 C207.628005,32.1299954 208.078,30.9200075 208.078,29.42 C208.078,27.9199925 207.628005,26.7100046 206.728,25.79 C205.827995,24.8699954 204.688007,24.41 203.308,24.41 C201.927993,24.41 200.793004,24.8699954 199.903,25.79 C199.012996,26.7100046 198.568,27.9199925 198.568,29.42 C198.568,30.9200075 199.012996,32.1299954 199.903,33.05 C200.793004,33.9700046 201.927993,34.43 203.308,34.43 Z M219.028,23.75 C220.108005,22.0699916 222.007986,21.23 224.728,21.23 L224.728,24.8 C224.407998,24.7399997 224.118001,24.71 223.858,24.71 C222.397993,24.71 221.258004,25.1349958 220.438,25.985 C219.617996,26.8350043 219.208,28.059992 219.208,29.66 L219.208,37.43 L215.458,37.43 L215.458,21.41 L219.028,21.41 L219.028,23.75 Z M242.818,29.51 C242.818,29.7700013 242.798,30.1399976 242.758,30.62 L230.188,30.62 C230.408001,31.8000059 230.982995,32.7349966 231.913,33.425 C232.843005,34.1150035 233.997993,34.46 235.378,34.46 C237.138009,34.46 238.587994,33.8800058 239.728,32.72 L241.738,35.03 C241.017996,35.8900043 240.108006,36.5399978 239.008,36.98 C237.907995,37.4200022 236.668007,37.64 235.288,37.64 C233.527991,37.64 231.978007,37.2900035 230.638,36.59 C229.297993,35.8899965 228.263004,34.9150063 227.533,33.665 C226.802996,32.4149938 226.438,31.0000079 226.438,29.42 C226.438,27.8599922 226.792996,26.4550063 227.503,25.205 C228.213004,23.9549938 229.197994,22.9800035 230.458,22.28 C231.718006,21.5799965 233.137992,21.23 234.718,21.23 C236.278008,21.23 237.672994,21.5749966 238.903,22.265 C240.133006,22.9550035 241.092997,23.9249938 241.783,25.175 C242.473003,26.4250063 242.818,27.8699918 242.818,29.51 Z M234.718,24.23 C233.517994,24.23 232.503004,24.5849965 231.673,25.295 C230.842996,26.0050036 230.338001,26.9499941 230.158,28.13 L239.248,28.13 C239.087999,26.9699942 238.598004,26.0300036 237.778,25.31 C236.957996,24.5899964 235.938006,24.23 234.718,24.23 Z" id="BookStore" fill="#303030"></path>
                </g>
            </g>
        </g>
    </g>
</svg>